<svg xmlns="http://www.w3.org/2000/svg" xmlns:xlink="http://www.w3.org/1999/xlink"
	 width="400" height="400" viewBox="-252.43 589.45 504.85 504.87">
	<defs>
		<linearGradient id="bk" x1="0%" y1="0%" x2="100%" y2="100%">
			<stop offset="10%" style="stop-color:#FDEB71;stop-opacity:1" />
			<stop offset="100%" style="stop-color:#F8D800;stop-opacity:1" />
		</linearGradient>
	</defs>
	<g>
		<path style="stroke: white;stroke-width: 20; stroke-linejoin:round; stroke-linecap:round; fill:url(#bk)" d="M 252 841.89C 252 702.793 139.096 589.89 0 589.89C -139.096 589.89 -252 702.793 -252 841.89C -252 980.986 -139.096 1093.89 0 1093.89C 139.096 1093.89 252 980.986 252 841.89z"/>
		<path style="stroke: white;stroke-width: 20; stroke-linejoin:round; stroke-linecap:round; fill:none" d="M 199.463 687.817C 178.625 682.963 156.912 680.396 134.604 680.396C 124.062 680.396 113.654 680.969 103.407 682.086"/>
		<path style="stroke: white;stroke-width: 20; stroke-linejoin:round; stroke-linecap:round; fill:none" d="M -72.0308 769.132C -120.653 820.275 -150.505 889.428 -150.505 965.506C -150.505 996.29 -145.617 1025.94 -136.576 1053.72"/>
		<path style="stroke: white;stroke-width: 15; stroke-linejoin:round; stroke-linecap:round; fill:none" d="M -0.00348271 589.873C -36.3117 599.559 -63.0843 632.693 -63.0843 672.038C -63.0843 718.972 -24.9888 757.067 21.9447 757.067C 61.2898 757.067 94.4239 730.295 104.11 693.987"/>
		<path style="stroke: white;stroke-width: 20; stroke-linejoin:round; stroke-linecap:round; fill:none" d="M 104.093 693.983C 104.093 636.527 57.4563 589.89 -1.176e-14 589.89C -57.4563 589.89 -104.093 636.527 -104.093 693.983C -104.093 751.439 -57.4563 798.076 -1.176e-14 798.076C 57.4563 798.076 104.093 751.439 104.093 693.983z"/>
	</g>
</svg>