<?xml version="1.0" encoding="UTF-8" standalone="no" ?>
<!DOCTYPE svg PUBLIC "-//W3C//DTD SVG 1.1//EN" "http://www.w3.org/Graphics/SVG/1.1/DTD/svg11.dtd">
<svg xmlns="http://www.w3.org/2000/svg" xmlns:xlink="http://www.w3.org/1999/xlink" version="1.1" width="252" height="252" viewBox="0 0 252 252" xml:space="preserve">
<g transform="matrix(0.7 0 0 0.7 250.5 300.5)"  >
<g style=""   >
		<g transform="matrix(11.87 0 0 -11.87 -178.48 -249.19)" id="body_806595153_5978"  >
<path style="stroke: rgb(255,255,255); stroke-width: 0.5; stroke-dasharray: none; stroke-linecap: round; stroke-dashoffset: 0; stroke-linejoin: round; stroke-miterlimit: 4; fill: rgb(255,165,0); fill-rule: nonzero; opacity: 1;"  transform=" translate(0, 0)" d="M 15 0 L 14.96346 1.0463471 L 14.854021 2.0875964 L 14.672213 3.1186754 L 14.418925 4.1345601 L 14.095389 5.1303019 L 13.703182 6.1010494 L 13.244214 7.0420732 L 12.720721 7.9487891 L 12.135254 8.8167791 L 11.490666 9.6418142 L 10.790097 10.419875 L 10.036958 11.147171 L 9.2349224 11.82016 L 8.3878936 12.435564 L 7.5 12.990381 L 6.5755672 13.48191 L 5.6190986 13.907757 L 4.6352548 14.265848 L 3.6288285 14.554435 L 2.6047227 14.772116 L 1.567927 14.917828 L 0.52349245 14.990862 L -0.52349245 14.990862 L -1.567927 14.917828 L -2.6047227 14.772116 L -3.6288285 14.554435 L -4.6352548 14.265848 L -5.6190986 13.907757 L -6.5755672 13.48191 L -7.5 12.990381 L -8.3878936 12.435564 L -9.2349224 11.82016 L -10.036958 11.147171 L -10.790097 10.419875 L -11.490666 9.6418142 L -12.135254 8.8167791 L -12.720721 7.9487891 L -13.244214 7.0420732 L -13.703182 6.1010494 L -14.095389 5.1303019 L -14.418925 4.1345601 L -14.672213 3.1186754 L -14.854021 2.0875964 L -14.96346 1.0463471 L -15 1.83697e-15 L -14.96346 -1.0463471 L -14.854021 -2.0875964 L -14.672213 -3.1186754 L -14.418925 -4.1345601 L -14.095389 -5.1303019 L -13.703182 -6.1010494 L -13.244214 -7.0420732 L -12.720721 -7.9487891 L -12.135254 -8.8167791 L -11.490666 -9.6418142 L -10.790097 -10.419875 L -10.036958 -11.147171 L -9.2349224 -11.82016 L -8.3878936 -12.435564 L -7.5 -12.990381 L -6.5755672 -13.48191 L -5.6190986 -13.907757 L -4.6352548 -14.265848 L -3.6288285 -14.554435 L -2.6047227 -14.772116 L -1.567927 -14.917828 L -0.52349245 -14.990862 L 0.52349245 -14.990862 L 1.567927 -14.917828 L 2.6047227 -14.772116 L 3.6288285 -14.554435 L 4.6352548 -14.265848 L 5.6190986 -13.907757 L 6.5755672 -13.48191 L 7.5 -12.990381 L 8.3878936 -12.435564 L 9.2349224 -11.82016 L 10.036958 -11.147171 L 10.790097 -10.419875 L 11.490666 -9.6418142 L 12.135254 -8.8167791 L 12.720721 -7.9487891 L 13.244214 -7.0420732 L 13.703182 -6.1010494 L 14.095389 -5.1303019 L 14.418925 -4.1345601 L 14.672213 -3.1186754 L 14.854021 -2.0875964 L 15 -3.6739401e-15" stroke-linecap="round" />
</g>
		<g transform="matrix(11.87 0 0 -11.87 -71.51 -360.61)" id="body_806595153_5978"  >
<path style="stroke: rgb(255,255,255); stroke-width: 0.5; stroke-dasharray: none; stroke-linecap: round; stroke-dashoffset: 0; stroke-linejoin: round; stroke-miterlimit: 4; fill: none; fill-rule: nonzero; opacity: 1;"  transform=" translate(-9.01, -9.39)" d="M 11.872219 9.167888 L 10.710023 9.3968958 L 9.5346824 9.5442747 L 8.3519241 9.6093095 L 6.1555529 9.5108484" stroke-linecap="round" />
</g>
		<g transform="matrix(11.87 0 0 -11.87 -257.04 -200.08)" id="body_806595153_5978"  >
<path style="stroke: rgb(255,255,255); stroke-width: 0.5; stroke-dasharray: none; stroke-linecap: round; stroke-dashoffset: 0; stroke-linejoin: round; stroke-miterlimit: 4; fill: none; fill-rule: nonzero; opacity: 1;"  transform=" translate(6.62, 4.14)" d="M -8.1261175 -12.608269 L -8.4530389 -11.469732 L -8.6997449 -10.311162 L -8.865032 -9.1382064 L -8.9480932 -7.9565775 L -8.9485281 -6.7720328 L -8.8663309 -5.5903433 L -8.7019041 -4.4172662 L -8.4560487 -3.2585163 L -8.1299608 -2.1197391 L -7.7252309 -1.0064826 L -7.2438295 0.075828952 L -6.6881025 1.1219238 L -6.0607574 2.1267046 L -5.3648508 3.085277 L -4.2894657 4.3328603" stroke-linecap="round" />
</g>
		<g transform="matrix(11.87 0 0 -11.87 -163.99 -368.17)" id="body_806595153_5978"  >
<path style="stroke: rgb(255,255,255); stroke-width: 0.3; stroke-dasharray: none; stroke-linecap: round; stroke-dashoffset: 0; stroke-linejoin: round; stroke-miterlimit: 4; fill: none; fill-rule: nonzero; opacity: 1;"  transform=" translate(-1.22, -10.02)" d="M 6.1960176 8.8039726 L 6.0929884 8.4660602 L 5.9666389 8.1361578 L 5.8175839 7.8158727 L 5.6465505 7.5067654 L 5.4543713 7.210342 L 5.2419828 6.9280462 L 5.0104197 6.6612535 L 4.7608103 6.4112637 L 4.4943703 6.1792948 L 4.2123979 5.9664769 L 3.9162673 5.7738466 L 3.6074206 5.6023431 L 3.2873628 5.4528008 L 2.9576532 5.3259492 L 2.6198978 5.2224059 L 2.2757426 5.1426754 L 1.9268639 5.0871463 L 1.5749616 5.0560889 L 1.22175 5.049655 L 0.86895006 5.0678749 L 0.51828043 5.1106611 L 0.17144959 5.1778045 L -0.16985256 5.2689777 L -0.50396353 5.3837371 L -0.82925541 5.521523 L -1.1441434 5.681665 L -1.4470933 5.8633819 L -1.7366295 6.0657892 L -2.0113416 6.2879007 L -2.2698903 6.5286336 L -2.5110164 6.7868157 L -2.7335453 7.061189 L -2.9363928 7.3504167 L -3.1185708 7.6530898 L -3.2791915 7.9677336 L -3.4174729 8.2928155 L -3.5327401 8.6267513 L -3.6244331 8.9679145 L -3.6921039 9.3146427 L -3.7354236 9.6652468 L -3.7541804 10.018018 L -3.7482839 10.371239 L -3.717762 10.723188 L -3.6627641 11.072151 L -3.5835576 11.416427 L -3.4805284 11.75434 L -3.3541784 12.084242 L -3.2051239 12.404527 L -3.0340901 12.713634 L -2.8419109 13.010058 L -2.6295223 13.292354 L -2.3979593 13.559146 L -2.1483498 13.809136 L -1.8819096 14.041105 L -1.5999375 14.253923 L -1.3038066 14.446553 L -0.99496013 14.618057 L -0.67490226 14.767599 L -0.3451925 14.89445 L 0.00003736351 14.999996" stroke-linecap="round" />
</g>
		<g transform="matrix(11.87 0 0 -11.87 -178.48 -353.68)" id="body_806595153_5978"  >
<path style="stroke: rgb(255,255,255); stroke-width: 0.5; stroke-dasharray: none; stroke-linecap: round; stroke-dashoffset: 0; stroke-linejoin: round; stroke-miterlimit: 4; fill: none; fill-rule: nonzero; opacity: 1;"  transform=" translate(0, -8.8)" d="M 6.1960201 8.80398 L 6.1809267 9.2361925 L 6.1357207 9.6662993 L 6.0606222 10.092205 L 5.9559969 10.511834 L 5.8223543 10.923143 L 5.660346 11.324128 L 5.4707608 11.712835 L 5.2545232 12.08737 L 5.0126857 12.445909 L 4.7464265 12.786704 L 4.4570436 13.108097 L 4.1459465 13.40852 L 3.8146507 13.68651 L 3.4647705 13.940713 L 3.09801 14.169891 L 2.7161564 14.372925 L 2.3210699 14.548829 L 1.9146754 14.696745 L 1.4989529 14.815951 L 1.0759276 14.905868 L 0.64766043 14.966057 L 0.21623797 14.996225 L -0.21623797 14.996225 L -0.64766043 14.966057 L -1.0759276 14.905868 L -1.4989529 14.815951 L -1.9146754 14.696745 L -2.3210699 14.548829 L -2.7161564 14.372925 L -3.09801 14.169891 L -3.4647705 13.940713 L -3.8146507 13.68651 L -4.1459465 13.40852 L -4.4570436 13.108097 L -4.7464265 12.786704 L -5.0126857 12.445909 L -5.2545232 12.08737 L -5.4707608 11.712835 L -5.660346 11.324128 L -5.8223543 10.923143 L -5.9559969 10.511834 L -6.0606222 10.092205 L -6.1357207 9.6662993 L -6.1809267 9.2361925 L -6.1960201 8.80398 L -6.1809267 8.3717674 L -6.1357207 7.9416606 L -6.0606222 7.5157549 L -5.9559969 7.0961253 L -5.8223543 6.6848162 L -5.660346 6.2838314 L -5.4707608 5.8951248 L -5.2545232 5.5205894 L -5.0126857 5.1620508 L -4.7464265 4.821255 L -4.4570436 4.4998627 L -4.1459465 4.1994396 L -3.8146507 3.9214493 L -3.4647705 3.6672464 L -3.09801 3.4380689 L -2.7161564 3.2350341 L -2.3210699 3.0591303 L -1.9146754 2.9112144 L -1.4989529 2.792008 L -1.0759276 2.7020913 L -0.64766043 2.641902 L -0.21623797 2.6117345 L 0.21623797 2.6117345 L 0.64766043 2.641902 L 1.0759276 2.7020913 L 1.4989529 2.792008 L 1.9146754 2.9112144 L 2.3210699 3.0591303 L 2.7161564 3.2350341 L 3.09801 3.4380689 L 3.4647705 3.6672464 L 3.8146507 3.9214493 L 4.1459465 4.1994396 L 4.4570436 4.4998627 L 4.7464265 4.821255 L 5.0126857 5.1620508 L 5.2545232 5.5205894 L 5.4707608 5.8951248 L 5.660346 6.2838314 L 5.8223543 6.6848162 L 5.9559969 7.0961253 L 6.0606222 7.5157549 L 6.1357207 7.9416606 L 6.1960201 8.80398" stroke-linecap="round" />
</g>
</g>
</g>
</svg>